<!-- Exported by Character Map UWP -->
<svg height="100%" viewBox="29 0 903 1024" width="100%" xmlns="http://www.w3.org/2000/svg" xmlns:xlink="http://www.w3.org/1999/xlink">
  <path d="M931.5,928C931.5,941.333 929,953.833 924,965.5C919,977.167 912.167,987.333 903.5,996C894.833,1004.67 884.667,1011.5 873,1016.5C861.333,1021.5 848.833,1024 835.5,1024L124.5,1024C111.167,1024 98.6667,1021.5 87,1016.5C75.3333,1011.5 65.1667,1004.67 56.5,996C47.8333,987.333 41,977.167 36,965.5C31,953.833 28.5,941.333 28.5,928C28.5,916.333 30.5,905 34.5,894L178.5,510.5C181.833,501.167 186.583,492.667 192.75,485C198.917,477.333 205.917,470.75 213.75,465.25C221.583,459.75 230.167,455.5 239.5,452.5C248.833,449.5 258.5,448 268.5,448L448,448L448,317C429,313 411.583,306 395.75,296C379.917,286 366.417,273.917 355.25,259.75C344.083,245.583 335.417,229.667 329.25,212C323.083,194.333 320,175.833 320,156.5C320,134.833 324.333,114.5 333,95.5C341.667,76.5001 353.333,59.9167 368,45.75C382.667,31.5834 399.667,20.4167 419,12.25C438.333,4.08337 458.667,0 480,0C501.333,0 521.667,4.08337 541,12.25C560.333,20.4167 577.333,31.5834 592,45.75C606.667,59.9167 618.333,76.5001 627,95.5C635.667,114.5 640,134.833 640,156.5C640,175.833 636.917,194.333 630.75,212C624.583,229.667 615.917,245.583 604.75,259.75C593.583,273.917 580.083,286 564.25,296C548.417,306 531,313 512,317L512,448L691.5,448C701.5,448 711.167,449.5 720.5,452.5C729.833,455.5 738.417,459.75 746.25,465.25C754.083,470.75 761,477.333 767,485C773,492.667 777.833,501.167 781.5,510.5L925.5,894C929.5,905 931.5,916.333 931.5,928ZM480,256C493,256 505.333,253.5 517,248.5C528.667,243.5 538.917,236.583 547.75,227.75C556.583,218.917 563.5,208.667 568.5,197C573.5,185.333 576,173 576,160C576,147 573.5,134.667 568.5,123C563.5,111.333 556.583,101.083 547.75,92.25C538.917,83.4167 528.667,76.5001 517,71.5C505.333,66.5001 493,64.0001 480,64C467,64.0001 454.667,66.5001 443,71.5C431.333,76.5001 421.083,83.4167 412.25,92.25C403.417,101.083 396.5,111.333 391.5,123C386.5,134.667 384,147 384,160C384,173 386.5,185.333 391.5,197C396.5,208.667 403.417,218.917 412.25,227.75C421.083,236.583 431.333,243.5 443,248.5C454.667,253.5 467,256 480,256ZM867.5,928C867.5,923.333 866.833,919.5 865.5,916.5L721.5,533C719.167,526.667 715.25,521.583 709.75,517.75C704.25,513.917 698.167,512 691.5,512L512,512L512,736C512,744.667 508.833,752.167 502.5,758.5C496.167,764.833 488.667,768 480,768C471.333,768 463.833,764.833 457.5,758.5C451.167,752.167 448,744.667 448,736L448,512L268.5,512C261.833,512 255.75,513.833 250.25,517.5C244.75,521.167 240.833,526.167 238.5,532.5L94.5,916.5C93.1667,919.5 92.5,923.333 92.5,928C92.5,937 95.5833,944.583 101.75,950.75C107.917,956.917 115.5,960 124.5,960L835.5,960C844.5,960 852.083,956.917 858.25,950.75C864.417,944.583 867.5,937 867.5,928Z" fill="#000000" fill-opacity="1">
  </path>
</svg>