<?xml version="1.0" encoding="UTF-8"?>
<svg id="_图层_1" xmlns="http://www.w3.org/2000/svg" version="1.1" xmlns:xlink="http://www.w3.org/1999/xlink" viewBox="0 0 36.17 44.02">
  <!-- Generator: Adobe Illustrator 29.6.0, SVG Export Plug-In . SVG Version: 2.1.1 Build 207)  -->
  <defs>
    <style>
      .st0 {
        fill: url(#_未命名的渐变_3);
      }

      .st1 {
        fill: url(#_未命名的渐变);
      }

      .st2 {
        fill: url(#_未命名的渐变_2);
      }
    </style>
    <linearGradient id="_未命名的渐变" data-name="未命名的渐变" x1="400.58" y1="-1167.85" x2="395.56" y2="-1168.4" gradientTransform="translate(-1096.91 552.14) rotate(45.81)" gradientUnits="userSpaceOnUse">
      <stop offset="0" stop-color="#8ac6ff"/>
      <stop offset="1" stop-color="#a6cbf0"/>
    </linearGradient>
    <linearGradient id="_未命名的渐变_2" data-name="未命名的渐变 2" x1="16.36" y1="35.77" x2="2.86" y2="17.71" gradientTransform="translate(0 42.17) scale(1 -1)" gradientUnits="userSpaceOnUse">
      <stop offset="0" stop-color="#8ac6ff"/>
      <stop offset="1" stop-color="#a6cbf0"/>
    </linearGradient>
    <linearGradient id="_未命名的渐变_3" data-name="未命名的渐变 3" x1="33.6" y1="21.98" x2="17.71" y2=".73" gradientTransform="translate(0 42.17) scale(1 -1)" gradientUnits="userSpaceOnUse">
      <stop offset="0" stop-color="#8ac6ff"/>
      <stop offset="1" stop-color="#a6cbf0"/>
    </linearGradient>
  </defs>
  <path class="st1" d="M35.31,6.12c1.88.88.27,3.33-.97,4.35-7.32,6.63-24.82,24.13-31.7,29.63-3.17,1.3-3.32-1.95-1.3-3.66,4.3-4.12,9.93-9.41,14.92-14.14,4.49-4.25,8.48-8.03,12.3-11.63,2.53-2.12,4.39-5.09,6.7-4.58l.07.02h0s0,0,0,0Z"/>
  <g>
    <path class="st2" d="M23.51,11.75L6.98,27.54c-.26-1.2-.38-2.39-.38-3.57V5.75c.01-.65.16-1.23.45-1.75s.69-.91,1.19-1.17c.51-.26,1.05-.36,1.64-.29.59.07,1.15.29,1.68.67l11.95,8.54Z"/>
    <path class="st0" d="M34.02,28.27c.03,1.3-.08,2.56-.35,3.79-.26,1.24-.67,2.38-1.21,3.42-.54,1.05-1.23,2.01-2.05,2.85-.82.85-1.77,1.55-2.84,2.1s-2.19.91-3.35,1.08-2.33.17-3.51,0c-1.18-.16-2.34-.5-3.49-.98-1.15-.49-2.24-1.13-3.28-1.91-.97-.74-1.88-1.59-2.72-2.56l19.14-18.29c.6.8,1.12,1.66,1.59,2.57.67,1.3,1.17,2.62,1.51,3.96s.52,2.67.56,3.97Z"/>
  </g>
</svg>
