<?xml version="1.0" encoding="UTF-8"?>
<svg id="_图层_1" xmlns="http://www.w3.org/2000/svg" version="1.1" xmlns:xlink="http://www.w3.org/1999/xlink" viewBox="0 0 27.53 43.7">
  <!-- Generator: Adobe Illustrator 29.6.0, SVG Export Plug-In . SVG Version: 2.1.1 Build 207)  -->
  <defs>
    <style>
      .st0 {
        fill: url(#_未命名的渐变_4);
      }
    </style>
    <linearGradient id="_未命名的渐变_4" data-name="未命名的渐变 4" x1=".52" y1="42.75" x2="21.65" y2="6.16" gradientTransform="translate(0 46) scale(1 -1)" gradientUnits="userSpaceOnUse">
      <stop offset="0" stop-color="#a6cbf0"/>
      <stop offset="1" stop-color="#8ac6ff"/>
    </linearGradient>
  </defs>
  <path class="st0" d="M2.08,32.13c-.68-1.32-1.2-2.7-1.55-4.13-.36-1.42-.53-2.84-.53-4.25V5.53c0-.65.16-1.23.45-1.75.29-.52.69-.91,1.19-1.17.51-.26,1.05-.36,1.64-.29.59.07,1.15.29,1.68.67l14.81,10.59c1.15.82,2.2,1.78,3.14,2.89.95,1.11,1.76,2.32,2.44,3.65.67,1.3,1.17,2.62,1.51,3.96s.52,2.67.56,3.97c.03,1.31-.08,2.57-.35,3.8-.26,1.23-.67,2.37-1.21,3.42-.54,1.05-1.23,2.01-2.05,2.85-.82.85-1.77,1.55-2.84,2.1s-2.19.91-3.35,1.08c-1.16.17-2.33.17-3.51,0s-2.34-.5-3.49-.98c-1.15-.49-2.24-1.13-3.28-1.91-1.04-.79-2.01-1.71-2.91-2.77-.89-1.06-1.67-2.23-2.34-3.53v.02Z"/>
</svg>
